<svg width="142" height="142" viewBox="0 0 142 142" fill="none" xmlns="http://www.w3.org/2000/svg">
<mask id="mask0_8_127" style="mask-type:luminance" maskUnits="userSpaceOnUse" x="11" y="39" width="120" height="64">
<path d="M11.8335 39.9375H130.167V102.129H11.8335V39.9375Z" fill="white"/>
</mask>
<g mask="url(#mask0_8_127)">
<path d="M65.1097 79.9284V84.3667C65.1097 96.2057 59.1887 102.126 47.3496 102.126H11.8335V84.3667H47.3496V79.9284H29.5935C17.7515 79.9284 11.8335 74.0074 11.8335 62.1683V57.73C11.8335 45.891 17.7515 39.971 29.5935 39.971H65.1097L47.3496 57.73H29.5935V62.1683H47.3526C59.1887 62.1683 65.1097 68.0893 65.1097 79.9284ZM120.987 49.072C114.918 43.0033 107.592 39.971 99.0102 39.971H67.9324L50.4598 57.6513L99.0102 57.73C102.68 57.73 105.817 59.0336 108.421 61.6377C111.025 64.2418 112.329 67.3795 112.329 71.0479C112.329 74.7172 111.025 77.8549 108.421 80.459C105.817 83.0631 102.68 84.3667 99.0102 84.3667H85.6924V67.3578H67.9324V102.126H99.0102C107.594 102.126 114.918 99.0933 120.987 93.0247C127.053 86.9589 130.088 79.632 130.088 71.0479C130.088 62.4637 127.053 55.1397 120.987 49.072Z" fill="black"/>
</g>
</svg>
