<svg width="76" height="40" viewBox="0 0 76 40" fill="none" xmlns="http://www.w3.org/2000/svg">
<mask id="mask0_8_16" style="mask-type:luminance" maskUnits="userSpaceOnUse" x="0" y="0" width="77" height="40">
<path d="M0 0H76.1094V40H0V0Z" fill="white"/>
</mask>
<g mask="url(#mask0_8_16)">
<path d="M34.2661 25.7213V28.5759C34.2661 36.1906 30.4578 39.9982 22.8432 39.9982H0V28.5759H22.8432V25.7213H11.4229C3.80636 25.7213 0 21.9131 0 14.2985V11.4438C0 3.82923 3.80636 0.0216064 11.4229 0.0216064H34.2661L22.8432 11.4438H11.4229V14.2985H22.8451C30.4578 14.2985 34.2661 18.1067 34.2661 25.7213ZM70.2052 5.8752C66.3019 1.97196 61.5901 0.0216064 56.0702 0.0216064H36.0816L24.8436 11.3932L56.0702 11.4438C58.4302 11.4438 60.4483 12.2822 62.1232 13.9571C63.7981 15.632 64.6365 17.6502 64.6365 20.0096C64.6365 22.3696 63.7981 24.3877 62.1232 26.0626C60.4483 27.7375 58.4302 28.5759 56.0702 28.5759H47.5044V17.6362H36.0816V39.9982H56.0702C61.5913 39.9982 66.3019 38.0478 70.2052 34.1446C74.1065 30.2432 76.0588 25.5307 76.0588 20.0096C76.0588 14.4884 74.1065 9.77781 70.2052 5.8752Z" fill="#32ADE6"/>
</g>
</svg>
